<svg xmlns="http://www.w3.org/2000/svg"  viewBox="0 0 128 128" width="64px" height="64px"><path fill="#fff" d="M104,114H24c-5.5,0-10-4.5-10-10V44c0-5.5,4.5-10,10-10h80c5.5,0,10,4.5,10,10v60C114,109.5,109.5,114,104,114z"/><path fill="#71c2ff" d="M37,109c0,2.8,2.2,5,5,5h61.7c5.5,0,10-4.5,10-10v0H42C39.2,104,37,106.2,37,109L37,109z"/><path fill="#444b54" d="M104,117H24c-7.2,0-13-5.8-13-13V76c0-1.7,1.3-3,3-3s3,1.3,3,3v28c0,3.9,3.1,7,7,7h80c3.9,0,7-3.1,7-7V76c0-1.7,1.3-3,3-3s3,1.3,3,3v28C117,111.2,111.2,117,104,117z"/><path fill="#444b54" d="M64 77.9c-17.8 0-35.6-4.8-51.5-14.3C11.6 63 11 62.1 11 61V44c0-7.2 5.8-13 13-13h80c7.2 0 13 5.8 13 13v17c0 1.1-.6 2-1.5 2.6C99.6 73.1 81.8 77.9 64 77.9zM17 59.3c29.1 16.8 64.9 16.8 94 0V44c0-3.9-3.1-7-7-7H24c-3.9 0-7 3.1-7 7V59.3zM82 27c-1.7 0-3-1.3-3-3 0-3.9-3.1-7-7-7H56c-3.9 0-7 3.1-7 7 0 1.7-1.3 3-3 3s-3-1.3-3-3c0-7.2 5.8-13 13-13h16c7.2 0 13 5.8 13 13C85 25.7 83.7 27 82 27z"/></svg>